<?xml version="1.0" standalone="no"?>
<!DOCTYPE svg PUBLIC "-//W3C//DTD SVG 20010904//EN"
 "http://www.w3.org/TR/2001/REC-SVG-20010904/DTD/svg10.dtd">
<svg version="1.0" xmlns="http://www.w3.org/2000/svg"
 width="1280.000000pt" height="926.000000pt" viewBox="0 0 1280.000000 926.000000"
 preserveAspectRatio="xMidYMid meet">
<g transform="translate(0.000000,926.000000) scale(0.100000,-0.100000)"
fill="#000000" stroke="none">
<path d="M4417 9236 c-29 -20 -48 -25 -99 -24 -41 1 -98 -8 -165 -27 -92 -25
-103 -30 -103 -51 0 -25 -28 -39 -59 -29 -29 9 -88 -34 -111 -81 -12 -23 -20
-61 -20 -88 l0 -48 -37 6 c-21 3 -76 8 -123 12 -77 5 -89 4 -129 -18 -30 -16
-50 -36 -64 -63 -33 -69 -33 -70 -63 -68 -110 10 -173 -5 -188 -42 -3 -9 2
-42 11 -75 l16 -58 -27 -46 c-30 -51 -43 -57 -54 -25 -14 37 -32 -2 -35 -74
-2 -57 -17 -97 -36 -97 -23 1 -32 18 -20 43 18 40 -1 77 -40 77 -41 0 -85 52
-77 92 11 55 -61 91 -140 69 -22 -6 -45 -11 -51 -11 -21 0 -15 26 12 58 29 34
25 59 -11 68 -38 10 -78 -9 -93 -44 -8 -18 -21 -32 -29 -32 -8 0 -52 20 -97
45 -61 33 -96 46 -131 47 l-49 3 -5 -45 c-6 -56 -30 -63 -89 -26 -50 32 -54
32 -66 4 -14 -33 -37 -33 -114 -3 -52 21 -78 26 -105 21 -35 -7 -36 -8 -36
-51 0 -50 -20 -64 -64 -44 -30 14 -41 7 -51 -31 -8 -33 15 -64 51 -66 16 -1
32 -3 37 -3 17 -2 5 -26 -31 -59 -20 -19 -42 -49 -48 -65 -7 -21 -20 -33 -38
-38 -39 -11 -61 -32 -117 -115 -71 -105 -89 -117 -166 -109 -61 6 -64 5 -93
-23 -16 -17 -30 -40 -30 -51 0 -23 -62 -87 -94 -97 -12 -4 -24 0 -31 10 -26
35 -65 11 -65 -41 0 -50 -32 -44 -66 12 -41 70 -82 83 -130 42 -20 -17 -27
-33 -28 -62 -1 -46 -17 -55 -40 -20 -9 14 -25 25 -36 25 -11 0 -37 9 -57 20
-22 12 -57 20 -84 20 -44 0 -50 -4 -93 -51 -50 -55 -101 -151 -93 -173 3 -7
21 -16 41 -20 53 -10 62 -35 27 -82 -16 -22 -39 -49 -52 -61 -24 -22 -26 -22
-104 -8 -126 22 -143 3 -166 -174 -15 -115 -20 -126 -76 -155 -71 -35 -86 -56
-78 -104 5 -32 2 -47 -17 -76 -28 -43 -55 -56 -117 -56 -86 0 -113 -70 -30
-78 55 -6 71 -28 64 -85 -8 -53 5 -76 57 -103 22 -12 28 -22 28 -48 0 -50 9
-65 46 -81 20 -8 44 -31 61 -59 16 -24 47 -58 70 -75 61 -44 67 -60 59 -166
-10 -130 -5 -135 145 -148 63 -5 124 -13 137 -18 12 -5 39 -36 60 -69 33 -53
71 -84 98 -79 24 4 34 -5 57 -55 30 -65 91 -134 134 -152 17 -8 53 -18 79 -24
47 -11 47 -11 76 25 16 19 36 35 43 35 7 0 26 -15 42 -34 42 -50 69 -61 99
-41 16 10 24 25 24 45 0 40 17 46 53 19 25 -19 44 -24 92 -24 71 0 115 11 115
28 0 6 5 29 10 49 9 31 17 39 48 48 20 5 52 10 70 10 43 0 74 47 70 105 -3 38
-5 40 -44 48 -23 4 -50 17 -60 28 -17 19 -17 22 2 82 l20 62 40 -1 c80 -1 304
-126 462 -258 67 -55 78 -71 122 -161 54 -111 154 -384 223 -605 77 -245 75
-220 23 -298 -122 -184 -184 -337 -317 -780 -38 -127 -46 -145 -68 -154 -238
-89 -608 -266 -806 -385 -830 -497 -1125 -1093 -833 -1678 117 -234 363 -491
662 -693 982 -666 2682 -1106 4636 -1202 124 -6 311 -15 416 -20 245 -13 542
-13 753 0 91 5 272 14 401 20 1498 67 2924 367 3900 820 712 330 1175 736
1318 1155 28 83 62 250 62 305 0 55 -34 221 -62 305 -175 516 -835 1014 -1838
1385 -1952 723 -4964 875 -7292 370 -188 -41 -181 -42 -173 23 14 110 57 300
91 409 74 234 180 416 320 555 130 127 261 180 509 203 61 6 176 17 256 26
193 19 226 15 574 -81 215 -59 292 -69 555 -69 175 0 264 5 350 18 209 32 392
79 493 126 32 16 65 26 73 23 8 -3 21 -29 30 -59 12 -41 31 -71 80 -124 35
-39 64 -79 64 -89 0 -18 21 -30 77 -46 35 -10 59 10 72 60 14 54 42 71 131 77
49 3 55 1 58 -17 1 -11 20 -30 42 -42 31 -19 54 -23 118 -23 84 0 74 4 184
-75 58 -42 112 -41 162 3 41 36 57 38 136 17 79 -21 107 -19 125 9 19 28 12
48 -36 104 -42 48 -39 83 11 123 53 43 52 68 -5 123 -65 64 -59 86 24 86 57 0
76 27 74 102 -2 77 -28 126 -81 156 -53 29 -60 57 -32 112 26 51 16 69 -27 52
-15 -6 -62 -12 -103 -14 l-75 -3 -6 44 c-3 25 -13 47 -22 53 -9 5 -17 15 -17
23 0 7 -21 44 -46 81 -31 45 -48 81 -51 108 -10 98 -16 102 -99 80 -72 -19
-105 -6 -118 48 -12 47 -42 61 -111 53 -79 -10 -145 31 -145 91 0 38 3 41 50
46 33 3 35 2 43 -39 l8 -43 73 0 c75 0 96 9 96 42 0 45 107 53 193 14 81 -37
108 -34 154 13 55 55 71 61 178 61 89 0 98 2 121 25 28 28 27 39 -12 117 -31
61 -30 89 2 119 23 21 25 28 18 74 -10 74 -15 78 -106 70 -68 -6 -82 -5 -98
10 -16 14 -19 26 -13 57 7 49 -6 61 -60 52 -64 -10 -117 46 -117 124 0 16 -9
41 -21 56 -27 35 -61 34 -184 -4 -110 -34 -114 -34 -150 -18 -17 8 -29 24 -36
52 -26 98 -72 102 -168 12 -68 -64 -79 -69 -179 -81 -50 -7 -82 -25 -82 -46 0
-5 9 -28 21 -51 21 -42 16 -57 -20 -58 -8 0 -34 -12 -58 -26 -54 -31 -74 -26
-99 29 l-19 42 -65 3 c-82 3 -133 -19 -138 -60 -4 -34 -13 -35 -60 -3 -60 41
-81 33 -101 -41 -14 -52 -25 -62 -91 -74 -29 -6 -60 -16 -68 -23 -9 -6 -35
-54 -59 -105 -26 -57 -48 -92 -56 -90 -6 3 -21 30 -32 60 -18 53 -18 62 -5
150 16 102 16 143 3 203 -7 35 -12 40 -50 50 -49 12 -78 37 -70 59 10 26 40
19 84 -19 51 -44 92 -45 247 -10 130 29 159 45 150 81 -8 30 4 40 100 90 37
19 79 46 92 59 43 43 25 95 -40 111 -16 4 -51 26 -78 50 -56 51 -80 54 -128
19 -41 -30 -64 -31 -155 -2 -94 31 -95 45 -3 98 101 58 118 75 118 119 0 26
-7 43 -26 61 -24 22 -34 24 -133 25 -60 1 -117 7 -129 13 -12 6 -40 36 -61 65
-81 109 -119 119 -221 56 -73 -45 -99 -48 -153 -21 -63 32 -225 170 -232 198
-4 16 3 49 17 89 l23 63 -21 28 c-15 20 -35 31 -72 38 -63 13 -74 23 -33 31
41 8 50 31 22 50 -33 23 -25 43 24 65 25 11 45 27 45 35 0 45 -113 96 -194 87
-35 -4 -50 -2 -57 8 -16 25 -9 49 16 59 21 8 24 13 16 28 -21 40 -39 47 -77
29 -47 -23 -67 -21 -91 7 -19 22 -27 23 -86 19 l-64 -6 -27 36 c-36 47 -119
89 -151 77 -18 -7 -27 -4 -41 11 -22 25 -34 24 -77 -5z m2433 -1980 c0 -25
-52 -76 -58 -58 -4 12 37 82 49 82 5 0 9 -11 9 -24z m199 -500 c14 -17 0 -29
-23 -20 -17 7 -20 16 -9 27 10 11 19 8 32 -7z m-4710 -116 c12 -22 21 -51 21
-63 0 -32 18 -47 57 -47 18 0 33 -3 33 -6 0 -3 -11 -24 -25 -48 -16 -28 -29
-74 -39 -139 -12 -78 -21 -109 -46 -148 -18 -27 -36 -49 -41 -49 -6 0 -33 17
-62 39 -63 47 -118 75 -217 112 -41 15 -75 33 -75 40 0 7 22 18 50 25 27 7 60
19 72 25 27 14 56 74 73 146 7 29 21 65 33 79 19 25 108 74 133 74 7 0 21 -18
33 -40z m1356 -110 c7 -12 -12 -50 -26 -50 -16 0 -22 29 -9 45 14 17 26 19 35
5z m156 -56 c21 -25 85 -54 121 -54 19 0 49 11 70 25 62 42 63 39 41 -78 -2
-15 -19 -41 -36 -57 -28 -26 -32 -36 -35 -100 l-4 -71 37 -32 c99 -84 106
-105 55 -174 -25 -33 -74 -67 -243 -164 -365 -211 -511 -290 -532 -287 -12 2
-21 12 -23 25 -5 31 41 159 99 282 28 58 80 170 114 249 71 161 124 249 219
370 67 83 91 97 117 66z m-231 -85 c0 -5 -28 -58 -62 -117 -33 -58 -66 -129
-72 -157 -14 -60 -37 -71 -60 -27 -17 34 -96 241 -96 253 0 17 48 33 135 45
120 15 155 16 155 3z m-296 -122 c28 -97 48 -240 43 -309 -6 -86 -33 -141
-137 -282 -44 -60 -103 -150 -131 -201 -122 -226 -172 -248 -243 -103 -57 116
-137 434 -153 604 l-6 64 40 0 c30 0 57 -11 113 -47 64 -41 80 -47 125 -47 58
1 161 43 193 78 30 32 37 65 17 80 -14 10 -15 18 -6 53 12 44 98 163 117 163
7 0 19 -24 28 -53z m4346 -135 c0 -13 -12 -22 -22 -16 -10 6 -1 24 13 24 5 0
9 -4 9 -8z m-5256 -36 c18 -7 46 -30 63 -51 23 -28 40 -38 71 -42 40 -5 42 -7
72 -78 16 -40 35 -96 41 -125 12 -58 5 -120 -15 -120 -7 0 -47 50 -87 112 -41
62 -107 155 -147 207 -56 71 -70 96 -60 102 18 12 23 11 62 -5z m2436 -152
c93 -22 122 -34 154 -60 47 -40 107 -60 203 -69 90 -9 123 -30 123 -80 0 -19
-4 -36 -8 -39 -4 -2 -39 4 -77 15 -133 37 -267 50 -524 51 -202 1 -257 -1
-307 -15 -74 -20 -74 -20 -74 -3 0 23 48 66 73 66 71 0 222 78 249 128 13 24
44 42 63 37 6 -2 62 -16 125 -31z m1073 -288 c18 -7 45 -27 61 -44 l29 -31
-27 -11 c-54 -20 -314 -5 -340 21 -16 15 -1 20 121 50 65 15 119 28 121 28 1
1 17 -5 35 -13z"/>
</g>
</svg>
